# WaveFront *.obj file (generated by CINEMA 4D)

v -200000 -0.00000000067644 -100000.015625
v -200000 81198.9375 -100000.015625
v 0.00181493745185 -0.00000000067644 -100000.015625
v 0.00181493745185 81198.9375 -100000.015625
v 0.00181493745185 -0.00000000067644 0.00000000022884
v 0.00181493745185 41198.93359375 0.00000000022884
v -200000 -0.00000000067644 0.00000000022884
v -200000 41198.93359375 0.00000000022884
# 8 vertices

vn 0 0 -1
vn 1 0 0
vn 0 0 1
vn -1 0 0
vn 0 0.92847669124603 0.3713906109333
vn 0 -1 0
# 6 normals

vt 0.07892499864101 0.38893604278564 0
vt 0.07893399894238 0.46595406532288 0
vt 0.26862698793411 0.46593105792999 0
vt 0.26861798763275 0.38892304897308 0
vt 0.34562501311302 0.38894605636597 0
vt 0.30771499872208 0.29408705234528 0
vt 0.26863199472427 0.29407608509064 0
vt 0.26862698793411 0.25499498844147 0
vt 0.07893399894238 0.25501799583435 0
vt 0.07893799990416 0.2940890789032 0
vt 0.03987000137568 0.29407703876495 0
vt 0.00190300005488 0.38891208171844 0
vt 0.72442102432251 0.70919400453568 0
vt 0.72442102432251 0.60704100131989 0
vt 0.53472900390625 0.60704100131989 0
vt 0.53472900390625 0.70919400453568 0
# 16 texture coordinates

o roadRampUp
usemtl lowpoly_road
f 1/1/1 2/2/1 4/3/1 3/4/1
f 3/4/2 4/5/2 6/6/2 5/7/2
f 5/7/3 6/8/3 8/9/3 7/10/3
f 7/10/4 8/11/4 2/12/4 1/1/4
f 2/13/5 8/14/5 6/15/5 4/16/5
f 7/10/6 1/1/6 3/4/6 5/7/6

