# WaveFront *.obj file (generated by CINEMA 4D)

v -200000 0.00000000000568 -100000
v -200000 41198.93359375 -100000
v 0.00015645436361 0.00000000000568 -100000
v 0.00015645436361 41198.93359375 -100000
v 0.00000000009095 0 -0.00000000001835
v 0.00000000009095 41198.93359375 -0.00000000000606
v -200000 0 -0.00031290843617
v -200000 41198.93359375 -0.00031290840707
v -124022.4296875 41198.93359375 -100000
v -124022.4296875 47788.66796875 -100000
v -78508.1015625 41198.93359375 -100000
v -78508.1015625 47788.66796875 -100000
v -78508.1015625 41198.93359375 -0.00012282922398
v -78508.1015625 47788.66796875 -0.00012282922398
v -124022.4296875 41198.93359375 -0.00019403830811
v -124022.4296875 47788.66796875 -0.00019403829356
# 16 vertices

vn 0 0 -1
vn 1 0 0.00000000156454
vn -0.00000000156454 -0 1
vn -1 0 0
vn 0 1 0
vn 0 -1 0
vn 1 0 0
vn -0.00000000156454 -0 1
vn -1 -0.00000000000001 -0.00000000156454
vn 0 1 0
# 10 normals

vt 0.40635800361633 0.95790302753448 0
vt 0.40635401010513 0.99697297811508 0
vt 0.59604597091675 0.99699801206589 0
vt 0.59605199098587 0.95791798830032 0
vt 0.63513398170471 0.95790702104568 0
vt 0.63511198759079 0.86306101083756 0
vt 0.59604299068451 0.86307001113892 0
vt 0.59604698419571 0.82399904727936 0
vt 0.40635499358177 0.82397800683975 0
vt 0.40634998679161 0.86305701732636 0
vt 0.36726900935173 0.86306405067444 0
vt 0.36728799343109 0.95791101455688 0
vt 0.72442102432251 0.57058399915695 0
vt 0.72442102432251 0.47573697566986 0
vt 0.53472900390625 0.47573697566986 0
vt 0.53472900390625 0.57058298587799 0
vt 0.00815400015563 0.229936003685 0
vt 0.00190300005488 0.2299770116806 0
vt 0.00246299989522 0.27316200733185 0
vt 0.00871300045401 0.27308106422424 0
vt 0.99048602581024 0.81987202167511 0
vt 0.99673497676849 0.81987100839615 0
vt 0.99673497676849 0.7250240445137 0
vt 0.99048602581024 0.72502499818802 0
vt 0.04507200047374 0.99673599004745 0
vt 0.04507200047374 0.99048602581024 0
vt 0.00190300005488 0.99048602581024 0
vt 0.00190300005488 0.99673599004745 0
vt 0.00815299991518 0.13511002063751 0
vt 0.00190300005488 0.13511002063751 0
vt 0.42661300301552 0.27372300624847 0
vt 0.42661300301552 0.17887699604034 0
vt 0.3834440112114 0.17887699604034 0
vt 0.3834440112114 0.27372300624847 0
# 34 texture coordinates

o roadStraight_divider
usemtl lowpoly_road
f 1/1/1 2/2/1 4/3/1 3/4/1
f 3/4/2 4/5/2 6/6/2 5/7/2
f 5/7/3 6/8/3 8/9/3 7/10/3
f 7/10/4 8/11/4 2/12/4 1/1/4
f 2/13/5 8/14/5 6/15/5 4/16/5
f 7/10/6 1/1/6 3/4/6 5/7/6
f 9/17/1 10/18/1 12/19/1 11/20/1
f 11/21/7 12/22/7 14/23/7 13/24/7
f 13/25/8 14/26/8 16/27/8 15/28/8
f 15/29/9 16/30/9 10/18/9 9/17/9
f 10/31/10 16/32/10 14/33/10 12/34/10

