# WaveFront *.obj file (generated by CINEMA 4D)

v -170000 0.00000000016769 -100000
v -170000 41198.93359375 -100000
v 30000.001953125 0.00000000016769 -100000
v 30000.001953125 41198.93359375 -100000
v 0 0.00000000016769 -0.00000000062528
v 0 41198.93359375 -0.00000000062528
v -200000 0.00000000016769 -0.00000000062528
v -200000 41198.93359375 -0.00000000062528
# 8 vertices

vn 0 0 -1
vn 0.95782625675201 0 0.28734794259071
vn 0 0 1
vn -0.95782631635666 0 -0.28734788298607
vn 0 1 0
vn 0 -1 0
# 6 normals

vt 0.06776099652052 0.704814016819 0
vt 0.06776099652052 0.74389404058456 0
vt 0.257454007864 0.7438930273056 0
vt 0.25745299458504 0.7048220038414 0
vt 0.29487800598145 0.69361102581024 0
vt 0.26646199822426 0.59875303506851 0
vt 0.22902299463749 0.60996800661087 0
vt 0.22901999950409 0.57088500261307 0
vt 0.03932800143957 0.57089400291443 0
vt 0.03932899981737 0.60996299982071 0
vt 0.00190300005488 0.62117600440979 0
vt 0.03032400086522 0.71603202819824 0
vt 0.19159600138664 0.56677800416946 0
vt 0.22004899382591 0.47193205356598 0
vt 0.03035699948668 0.47193205356598 0
vt 0.00190300005488 0.56677800416946 0
# 16 texture coordinates

o roadLeft
usemtl lowpoly_road
f 1/1/1 2/2/1 4/3/1 3/4/1
f 3/4/2 4/5/2 6/6/2 5/7/2
f 5/7/3 6/8/3 8/9/3 7/10/3
f 7/10/4 8/11/4 2/12/4 1/1/4
f 2/13/5 8/14/5 6/15/5 4/16/5
f 7/10/6 1/1/6 3/4/6 5/7/6

