# WaveFront *.obj file (generated by CINEMA 4D)

v -200000 -0.00000000066507 -100000
v -200000 41198.93359375 -100000
v 0.00000000002274 -0.00000000066507 -100000
v 0.00000000002274 41198.93359375 -100000
v 0.00000000002274 -0.00000000066507 0
v 0.00000000002274 41198.93359375 0
v -200000 -0.00000000066507 0
v -200000 41198.93359375 0
# 8 vertices

vn 0 0 -1
vn 1 0 0
vn 0 0 1
vn -1 0 0
vn 0 1 0
vn 0 -1 0
# 6 normals

vt 0.40635299682617 0.13585102558136 0
vt 0.40636000037193 0.17493402957916 0
vt 0.59605199098587 0.17490208148956 0
vt 0.59604501724243 0.13583302497864 0
vt 0.63511401414871 0.1358460187912 0
vt 0.63514202833176 0.04099905490875 0
vt 0.59605902433395 0.04098701477051 0
vt 0.59605199098587 0.00190305709839 0
vt 0.40635898709297 0.00193703174591 0
vt 0.40636599063873 0.04100406169891 0
vt 0.36729800701141 0.04099297523499 0
vt 0.36726900935173 0.13584005832672 0
vt 0.48750400543213 0.80940300226212 0
vt 0.48750400543213 0.71455699205399 0
vt 0.29781201481819 0.71455699205399 0
vt 0.29781201481819 0.80940300226212 0
# 16 texture coordinates

o roadStraight
usemtl lowpoly_road
f 1/1/1 2/2/1 4/3/1 3/4/1
f 3/4/2 4/5/2 6/6/2 5/7/2
f 5/7/3 6/8/3 8/9/3 7/10/3
f 7/10/4 8/11/4 2/12/4 1/1/4
f 2/13/5 8/14/5 6/15/5 4/16/5
f 7/10/6 1/1/6 3/4/6 5/7/6

