# WaveFront *.obj file (generated by CINEMA 4D)

v -200000 0.00000000000568 -100000
v -200000 41198.93359375 -100000
v 0.00015645427629 0.00000000000568 -100000
v 0.00015645427629 41198.93359375 -100000
v 0.00000000009095 0 -0.00000000009225
v 0.00000000009095 41198.93359375 -0.0000000000899
v -200000 0 -0.00031290849438
v -200000 41198.93359375 -0.00031290849438
v -78508.1015625 41200.2890625 76.5989990234375
v -78508.1015625 47788.66796875 76.5989990234375
v -124022.4296875 41200.2890625 76.59893035888672
v -124022.4296875 47788.66796875 76.59893035888672
v -101265.265625 41200.2890625 -94661.2109375
v -101265.265625 47788.66796875 -94661.2109375
# 14 vertices

vn 0 0 -1
vn 1 0 0.00000000156454
vn -0.00000000156454 -0 1
vn -1 0 0
vn 0 1 0
vn 0 -1 0
vn -0.0000000015715 0 1
vn -0.97234052419662 0 -0.23356787860394
vn 0 1 0
vn 0 0 0
vn 0.97234046459198 -0.00000000000001 -0.23356792330742
# 11 normals

vt 0.76792699098587 0.5278400182724 0
vt 0.76792001724243 0.56690800189972 0
vt 0.95761299133301 0.56694102287292 0
vt 0.95761901140213 0.52785801887512 0
vt 0.99670302867889 0.52784699201584 0
vt 0.99667501449585 0.43299901485443 0
vt 0.95760697126389 0.43301105499268 0
vt 0.95761299133301 0.39394199848175 0
vt 0.76792001724243 0.39391005039215 0
vt 0.76791399717331 0.43299305438995 0
vt 0.72882997989655 0.43300402164459 0
vt 0.72885799407959 0.52785098552704 0
vt 0.46276599168777 0.48780608177185 0
vt 0.46276599168777 0.39296007156372 0
vt 0.27307298779488 0.39296007156372 0
vt 0.27307298779488 0.48780608177185 0
vt 0.62799900770187 0.81880801916122 0
vt 0.62795698642731 0.81255900859833 0
vt 0.58479297161102 0.81314504146576 0
vt 0.58483499288559 0.81939399242401 0
vt 0.488106995821 0.81315004825592 0
vt 0.488106995821 0.81939899921417 0
vt 0.32540398836136 0.16853308677673 0
vt 0.36748400330544 0.25560402870178 0
vt 0.36748400330544 0.15889704227448 0
vt 0 1 0
vt 0.72468400001526 0.81881296634674 0
vt 0.72468501329422 0.81256401538849 0
# 28 texture coordinates

o roadStraight_divider_end
usemtl lowpoly_road
f 1/1/1 2/2/1 4/3/1 3/4/1
f 3/4/2 4/5/2 6/6/2 5/7/2
f 5/7/3 6/8/3 8/9/3 7/10/3
f 7/10/4 8/11/4 2/12/4 1/1/4
f 2/13/5 8/14/5 6/15/5 4/16/5
f 7/10/6 1/1/6 3/4/6 5/7/6
f 9/17/7 10/18/7 12/19/7 11/20/7
f 11/20/8 12/19/8 14/21/8 13/22/8
f 10/23/9 14/24/9 12/25/9
f 13/27/11 14/28/11 10/18/11 9/17/11

