# WaveFront *.obj file (generated by CINEMA 4D)

v -230000 -0.00000000037517 -100000
v -230000 81198.9375 -100000
v -30000.00390625 -0.00000000037517 -100000
v -30000.00390625 81198.9375 -100000
v -0.00181493768468 -0.00000000037517 -0.00000000005607
v -0.00181493768468 81198.9375 -0.00000000005607
v -200000 -0.00000000037517 -0.00000000005607
v -200000 81198.9375 -0.00000000005607
# 8 vertices

vn 0 0 -1
vn 0.95782625675201 0 -0.28734791278839
vn 0 0 1
vn -0.95782625675201 0 0.28734791278839
vn 0 1 0
vn 0 -1 0
# 6 normals

vt 0.07567299902439 0.91973900794983 0
vt 0.07566999644041 0.99674499034882 0
vt 0.26536300778389 0.99675101041794 0
vt 0.26536598801613 0.91972804069519 0
vt 0.3391569852829 0.94181698560715 0
vt 0.36755400896072 0.84695398807526 0
vt 0.29378500580788 0.82486999034882 0
vt 0.29378798604012 0.74786603450775 0
vt 0.10409499704838 0.74786001443863 0
vt 0.10409399867058 0.82488298416138 0
vt 0.03030800074339 0.80278897285461 0
vt 0.00190300005488 0.89765101671219 0
vt 0.72433197498322 0.80845296382904 0
vt 0.69587802886963 0.71360599994659 0
vt 0.50618499517441 0.71360599994659 0
vt 0.53463798761368 0.80845296382904 0
# 16 texture coordinates

o roadRampRight
usemtl lowpoly_road
f 1/1/1 2/2/1 4/3/1 3/4/1
f 3/4/2 4/5/2 6/6/2 5/7/2
f 5/7/3 6/8/3 8/9/3 7/10/3
f 7/10/4 8/11/4 2/12/4 1/1/4
f 2/13/5 8/14/5 6/15/5 4/16/5
f 7/10/6 1/1/6 3/4/6 5/7/6

