# WaveFront *.obj file (generated by CINEMA 4D)

v -170000 0.00000000050022 -100000
v -170000 81198.9375 -100000
v 30000.00390625 0.00000000050022 -100000
v 30000.00390625 81198.9375 -100000
v 0.00181493768468 0.00000000050022 -0.00000000000006
v 0.00181493768468 81198.9375 -0.00000000000006
v -200000 0.00000000050022 -0.00000000000006
v -200000 81198.9375 -0.00000000000006
# 8 vertices

vn 0 0 -1
vn 0.95782625675201 0 0.28734791278839
vn 0 0 1
vn -0.95782625675201 0 -0.28734791278839
vn 0 1 0
vn 0 -1 0
# 6 normals

vt 0.10409600287676 0.17377007007599 0
vt 0.10409999638796 0.25079298019409 0
vt 0.29379200935364 0.25078403949738 0
vt 0.29378899931908 0.17377805709839 0
vt 0.36755698919296 0.15168797969818 0
vt 0.3391509950161 0.05682706832886 0
vt 0.26536500453949 0.07892405986786 0
vt 0.26536300778389 0.00190305709839 0
vt 0.07567100226879 0.00190508365631 0
vt 0.07567200064659 0.07891297340393 0
vt 0.00190300005488 0.10100305080414 0
vt 0.03030899912119 0.19586503505707 0
vt 0.57028299570084 0.37267804145813 0
vt 0.59873700141907 0.27783000469208 0
vt 0.40904501080513 0.27783000469208 0
vt 0.38058999180794 0.37267804145813 0
# 16 texture coordinates

o roadRampLeft
usemtl lowpoly_road
f 1/1/1 2/2/1 4/3/1 3/4/1
f 3/4/2 4/5/2 6/6/2 5/7/2
f 5/7/3 6/8/3 8/9/3 7/10/3
f 7/10/4 8/11/4 2/12/4 1/1/4
f 2/13/5 8/14/5 6/15/5 4/16/5
f 7/10/6 1/1/6 3/4/6 5/7/6

